<?xml version="1.0" encoding="utf-8"?>
<!-- Generator: Adobe Illustrator 24.3.0, SVG Export Plug-In . SVG Version: 6.00 Build 0)  -->
<svg version="1.1" id="Ebene_1" xmlns="http://www.w3.org/2000/svg" xmlns:xlink="http://www.w3.org/1999/xlink" x="0px" y="0px"
	 viewBox="0 0 300 200" style="enable-background:new 0 0 300 200;" xml:space="preserve">
<style type="text/css">
	.st0{fill:#353535;}
	.st1{fill:#353435;}
</style>
<g>
	<path class="st0" d="M17.6,34.45c2.21-4.36,4.1-11.06,6.31-15.42c0.88-1.74,1.66-4.12,0.19-5.41c-2.8,2.76-5.46,5.81-6.93,9.45
		S11.69,39.37,17.6,34.45c-1.6,1.55-3.5,1.92-3.89,4.11c-0.38,2.19,1.52,6.17,3.72,5.86c1.21-0.17,2.15-1.14,2.82-2.16
		c1.43-2.17,2.08-4.76,3.14-7.13c1.06-2.38,2.74-4.72,5.24-5.44c-1.02,2.89-2.04,5.79-3.07,8.68c-0.75,2.13-1.09,5.21,1.04,5.97
		c1.07,0.38,2.25-0.13,3.17-0.79c4.45-3.19,5.5-9.48,9.45-13.28c2.33-2.24,5.63-3.45,8.86-3.24c0.53,0.03,1.11,0.13,1.48,0.52
		c0.37,0.4,0.42,0.98,0.43,1.53c0.05,3.41-0.95,6.83-2.83,9.68c-0.97,1.48-2.22,3.3-1.32,4.83c0.74,1.25,2.61,1.37,3.86,0.65
		c1.44-0.83,3.57-3.38,4.42-4.86c0.1-0.17,0.4-0.27,0.43-0.44c0.93-4.58,4.26-8.43,6.81-12.23c1.48,0.39,2.05,2.32,1.62,3.79
		c-1.41,4.75-7.54,8.14-5.36,13.93c0.14,0.38,0.38,0.79,0.78,0.88c0.32,0.07,0.64-0.1,0.92-0.27c2.77-1.69,4.95-4.34,6.05-7.4
		c0.34-0.93,0.58-1.9,1.01-2.79c1.09-2.25,3.29-3.79,4.48-5.98c1.09-0.16,1.92,1.13,1.79,2.22s-0.88,1.99-1.52,2.88
		c-0.43,0.59-5.35,11.54-3.72,11.59c4.83,0.14,8.76-5.68,11.19-9.1c1.06-1.49,7.58-13.1,8.68-11.73c0.45,0.55,0.45,1.32,0.49,2.03
		c0.42,6.19,7.29,8.76,5,15.49c-0.25,0.75-0.61,1.51-0.48,2.29c0.58,3.42,6.89,1.12,8.98,3.07c0.84-1.15,2.54-1.02,3.96-1.13
		c11.26-0.91,13.54-11.09,14.51-20.42c0.38-3.65,1.41-7.56,4.35-9.75c-0.77,4.62-2.43,9.06-2.83,13.75
		c-0.11,1.23-0.78,5.19,0.84,5.82c0.98,0.38,7.29-5.79,7.13-6.43c1.3,5.29-7.04,7.39-6.98,12.92c0.01,0.78,0.14,1.6,0.59,2.24
		c1.3,1.85,3.15,0.48,4.58,1.31c0.16,0.09,2.9,2.55,1.96,2.62c-2.4,0.2-5.02-0.3-7.07-1.62c-0.64-0.41-4.35-3.9-4.07-4.46
		c-5.52,10.82-24.35,7.04-34.03,7.02c-1.81,0-4.29-0.73-4.03-2.51c0.42-2.86,5.16-1.17,6.98-1.79c2.73-0.93,3.58-4.29,2.66-6.82
		c-0.61-1.68-2.19-4.05-3.84-4.87c-3.06-1.52-2.37-0.35-4.13,2.44c-2.69,4.25-13.19,19.69-17.24,8.82c0.18,0.54-5.19,3.13-5.74,3.14
		c-2.86,0.07-4.35-3.49-7.39-2.51c-2.37,0.76-4.12,3.72-6.54,3.14c-1.49-0.36-2.33-2.06-2.28-3.59c0.05-1.54,0.77-2.96,1.41-4.35
		c1.58-3.46,2.75-7.09,3.5-10.82c-4.2-0.18-7.07,4.12-8.71,7.99c-1.64,3.87-3.49,8.39-7.52,9.57c-4.16,1.22-8.62-1.84-12.85-0.89
		c-1.65,0.37-3.44,1.31-4.9,0.46c-1.26-0.74-1.58-2.49-2.75-3.36c-1.43-1.06,2.15-13.39,4.02-18.98s4.69-11.54,10.14-13.79
		c0.68-0.28,1.52-0.48,2.12-0.05c0.65,0.46,0.7,1.39,0.64,2.18C27.25,20.37,23.65,29.95,17.6,34.45z"/>
	<path class="st0" d="M129.33,47.44c-0.24-0.41-0.29-0.88,0.01-1.25c0.25-0.31,0.64-0.44,1-0.61c2.59-1.16,3.81-4.08,4.95-6.68
		c1.28-2.91,2.76-5.74,4.43-8.45c0.62-1.01,1.93-2.12,2.8-1.32c0.59,0.54,0.36,1.5,0.1,2.25c-1.37,3.85-3.33,7.38-4.83,11.17
		c-0.29,0.72-0.56,1.49-0.46,2.26c0.45,3.46,5.48,0.31,6.77-0.95c3.05-2.96,5.62-10.19,7.27-14.12c0,0,7.83-6.03,9.47-1.69
		c0.32,0.21,3.36,2.37,3.25,2.64c0.37-0.86,1.39-3.02,2.68-3.33c2.08-0.5,2.26-0.87,4.15,1.45c3.32,4.07-3.08,9.01-3.69,12.64
		c-1.11,6.62,6.82-3.17,7.62-4.98c0.92-2.06,3.08-3.72,4.94-4.92c3.96-2.55,4.25-2.31,8.28-0.81c2.77,1.03,4.96,0.55,7.75,0.46
		c3.23-0.1,2.64-0.11,5.38,1.86c1.23-1.17,2.76-3.42,4.79-2.45c0.38,0.18,0.71,0.46,1.13,0.52c0.55,0.08,1.06-0.27,1.6-0.38
		c1.61-0.35,3,1.44,2.99,3.08c-0.01,1.64-0.92,3.12-1.62,4.61c-0.7,1.49-1.22,3.27-0.46,4.73c0.13,0.25,0.31,0.49,0.57,0.6
		c0.37,0.15,0.79-0.02,1.13-0.23c2.48-1.55,2.98-5.88,4.34-8.31c0.94-1.7,2.1-3.34,3.7-4.44c0.89-0.62,1.89-1.14,2.96-1.29
		c3.54-0.47,6.96,1.79,7.91,2.77c-0.95,0.8-1.66,1.39-2.51,2.11c0.45-0.38-4.33-0.24-5.08,0.08c-3.76,1.62-7.48,5.66-4.48,9.43
		c0.81,1.01,6.18,4.46,7.17,3.25c0.46-0.56,2.62-0.95,3.54-0.92c2.89,0.08,0.55,1.87,0.66,2.11c-1.34,0.71-2.77,0.96-4.3,1.02
		c-4.42,0.17-6.93-2.26-10.81-3.2c-3.38-0.82-8.07,1.73-9.14-2.95c-0.36-1.58,4.03-11.7-0.17-8.6c-2.65,1.96-3.74,4.41-5.29,7.17
		c-0.69,1.24-3.98,7.32-4.87,3.16c-0.22-1.02,0.2-2.07,0.73-2.97c0.86-1.48,2.02-2.84,2.37-4.52s-0.63-3.8-2.34-3.84
		c-0.44-0.01-0.86,0.12-1.28,0.24c-2.4,0.72-3.43,1.08-5.04,2.94c0.88-0.94,0.2,4.3,0.13,4.55c-1.54,5.16-7.11,8.61-12.41,7.27
		c-2.43-0.62-4.21-2.45-6.64-2.57c-2.01-0.09-3.03,2.36-4.91,0.19c-0.68-0.79-0.84-1.91-0.86-2.95c-0.04-2.36,3.84-9.4,3.12-10.68
		c-1.15-2.04-3.06,0.61-3.85,1.53c-2.96,3.43-3.72,8.49-5.78,12.42c-0.21,0.4-2.1-1.89-2.21-2.24c-0.43-1.38,0.41-1.82,0.74-3.02
		c0.6-2.19,4.6-10.05,0.57-9.53c-1.78,0.23-4.83,4.85-5.7,6.34c-1.76,3.04-1.57,6.45-3.57,9.22c-0.17,0.24-0.29,0.5-0.48,0.82
		c-0.88-0.47-1.69-0.91-2.68-1.45c-1.55,2.78-4.26,3.07-7.14,3.42c0,0-0.83-0.74-0.83-0.75c-0.82-0.74-1.3-1.76-2.41-2.02
		c-1.38-0.32-2.3,1.3-3.82,1.02C130.1,48.28,129.59,47.89,129.33,47.44z M181.13,35.75c-0.37-0.12-0.74-0.2-1.12-0.16
		c-3.29,0.36-4.16,6.46-3.25,8.89c0.26,0.71,0.78,1.36,1.49,1.6c0.43,0.15,0.89,0.14,1.34,0.13c3.43-0.08,5.62-0.49,7.05-3.89
		c0.47-1.12,1.54-7.24-0.99-6.44c-0.52,0.17-0.94,0.55-1.47,0.69C183.15,36.86,182.16,36.11,181.13,35.75z"/>
	<path class="st0" d="M264.42,41.75c-1.72-2.93-0.63-7.58-0.23-10.66c0.64-5,2.11-10.05,5.5-13.91c1.29-1.47,5.99-4.93,8.02-2.95
		c0.26,0.25,0.38,0.62,0.47,0.97c0.64,2.38,0.71,5.16,0.31,7.6c-0.34,2.08-1.82,6.87-2.89,9.04c-0.38-0.49,5.03-4.9,5.46-5.02
		c3.11-0.83,5.26,0.18,8.25,0.72c3.03,0.54,3.2,3.19,0.85,4.11c-0.16,0.06-0.32,0.13-0.4,0.28c-0.07,0.12-0.07,0.28-0.06,0.42
		c0.15,2.46,0.07,4.96-0.6,7.35c-0.62,2.2-1.47,5.19-3.98,5.88c-4.13,1.12-6.4-2.41-9.65-3.85c-1.39-0.61-2.73,1.18-3.8,1.75
		c-1.48,0.8-3.21,1.03-4.79,0.37C265.73,43.38,264.94,42.64,264.42,41.75z M272.52,31.94c2-2.31,1.76-4.98,2.67-7
		c0.71-1.57,2.26-5.91,0.46-7.34c-1.54-1.23-3.6,1.41-4.39,2.54c-2.57,3.66-4.45,9.46-4.53,13.93c-0.04,2.32,0.93,7.05,4.09,6.69
		c2.78-0.31,4.14-5.05,4.42-7.3c0.28-2.21-7.62,5.54-7.73,4.83C267.52,38.29,272.52,31.95,272.52,31.94z M279.25,31.84
		c-1.29,1.83-2.53,4.03-1.71,6.31c0.47,1.3,1.41,2.61,2.41,3.55c1.06,1,4.02,1.75,5.21,0.58c0.2-0.19,2.27-5.86,1.93-9.14
		c-0.18-1.76-1.42-2.84-2.98-3.38"/>
	<path class="st0" d="M259.41,44.52c0.01-0.02,4.54-3.75,4.55-3.73c-0.09,0.58-2.09,5.68-5.53,6.54c-0.3,0.07-0.61,0.07-0.91,0
		c-2.32-0.52-4.66-1.02-7.04-0.99c-1.72,0.02-2.76,0.5-4.14,1.4c-1.86,1.21-2.82,1.08-3.81-0.96c0.52,1.07,4.87-2.94,5.19-3.43
		c1.44-2.18,1.21-4.85,1.19-7.36c-0.04-6.32,0.63-14.69,5.62-19.28c1.31-1.21,2.83-2.06,4.41-1.13c5.34,3.14,2.44,11.7,0.46,16
		c-0.35,0.76-0.75,1.52-1.36,2.1c-0.69,0.65-1.65,1.01-2.6,0.99c0.15-2.53,1.55-4.79,2.62-7.1c0.86-1.87,2.65-7.67-0.68-8.4
		c-0.48-0.11-0.99,0-1.42,0.24c-1.8,1.04-2.45,3.15-2.92,5.11c-1.09,4.5-1.83,9.09-2.19,13.71l4.56-3.64
		c0.36,0.55,0.64,1.19,0.59,1.84c-0.08,1.09-1.43,1.79-2.1,2.56c-0.92,1.05-1.69,2.29-1.89,3.69c-0.1,0.69,0.33,1.49,0.96,1.79
		c0.77,0.36,1.55,0.75,2.33,0.73C256.67,45.18,258.57,45.79,259.41,44.52z"/>
	<path class="st0" d="M235.18,42.8c0.74,0.89,1.65,1.63,2.8,2.21c1.86,0.92,1.85,0.05,3.63-0.18c1.21-0.15,1.22,2.58,2.17,2.34
		c-0.76,1.34-2.88,0.85-4.33,1.19c-2.61,0.61-4.22-0.85-6.66-1.24c-1.14-0.18-3.1,0.29-3.15-1.6c-0.02-0.61,0.33-1.13,0.8-1.52
		c0.87-0.71-0.37-3.68-0.41-4.85c-0.06-1.65,0.12-3.45,0.96-4.9c1.33-2.3,3.28-4.74,6.08-5.19c0.61-0.1,1.24-0.05,1.79,0.21
		c1.64,0.74,1.68,2.5,1.53,4.01c-0.19,1.96-0.57,3.91-1.12,5.8c-0.22,0.74-2.26,4.69-3.13,2.29c-0.18-0.49-0.04-1.04,0.1-1.55
		c0.39-1.4,2.81-6.48,0.4-7.06c-1.81-0.44-3.5,3.05-3.67,4.41C232.69,39.31,233.86,41.21,235.18,42.8z"/>
	<path class="st0" d="M129.41,30.87c-0.23-2.02,1-3.39,2.24-4.85c2.59-3.08,7.58-13.04,3.23-16.55c-1.23-1-9.22,7.71-10.57,7.22
		c0.26-1.07,6.63-9.01,7.5-9.7c4.62-3.67,6.72,1.69,6.77,5.5c0.08,5.77-2.2,10.79-5.22,15.57
		C132.46,29.48,130.92,30.91,129.41,30.87z"/>
	<path class="st0" d="M147.03,18.31c-0.71,0.15-1.18-1.23-1.42-2.08c-0.47-1.63,1.08-3.17,2.72-2.75c1.21,0.31,1.51,2.55,0.43,3.67
		C147.96,17.98,148.15,18.07,147.03,18.31z"/>
	<path class="st0" d="M37.83,14.26c-1.65,1.45-4.78-0.85-3.69-3.6C37.68,8.71,39.83,11.39,37.83,14.26z"/>
</g>
<path class="st1" d="M153.47,68.44l92.75,92.21c-24.23,22.97-56.6,37.41-92.37,38.58L153.47,68.44z"/>
<path class="st1" d="M159.44,62.44l130.78-0.39c-0.95,35.77-15.2,68.22-38.03,92.59L159.44,62.44z"/>
<path class="st1" d="M145.01,68.47l0.39,130.78c-35.77-0.95-68.22-15.2-92.59-38.03L145.01,68.47z"/>
<path class="st1" d="M139,62.5L46.8,155.25C23.83,131.02,9.38,98.65,8.22,62.89L139,62.5z"/>
<g>
	<path class="st0" d="M16.27-62.92c2.21-4.36,4.1-11.06,6.31-15.42c0.88-1.74,1.66-4.12,0.19-5.41c-2.8,2.76-5.46,5.81-6.93,9.45
		C14.35-70.65,10.35-58,16.27-62.92c-1.6,1.55-3.5,1.92-3.89,4.11c-0.38,2.19,1.52,6.17,3.72,5.86c1.21-0.17,2.15-1.14,2.82-2.16
		c1.43-2.17,2.08-4.76,3.14-7.13c1.06-2.38,2.74-4.72,5.24-5.44c-1.02,2.89-2.04,5.79-3.07,8.68c-0.75,2.13-1.09,5.21,1.04,5.97
		c1.07,0.38,2.25-0.13,3.17-0.79c4.45-3.19,5.5-9.48,9.45-13.28c2.33-2.24,5.63-3.45,8.86-3.24c0.53,0.03,1.11,0.13,1.48,0.52
		c0.37,0.4,0.42,0.98,0.43,1.53c0.05,3.41-0.95,6.83-2.83,9.68c-0.97,1.48-2.22,3.3-1.32,4.83c0.74,1.25,2.61,1.37,3.86,0.65
		c1.44-0.83,3.57-3.38,4.42-4.86c0.1-0.17,0.4-0.27,0.43-0.44c0.93-4.58,4.26-8.43,6.81-12.23c1.48,0.39,2.05,2.32,1.62,3.79
		c-1.41,4.75-7.54,8.14-5.36,13.93c0.14,0.38,0.38,0.79,0.78,0.88c0.32,0.07,0.64-0.1,0.92-0.27c2.77-1.69,4.95-4.34,6.05-7.4
		c0.34-0.93,0.58-1.9,1.01-2.79c1.09-2.25,3.29-3.79,4.48-5.98c1.09-0.16,1.92,1.13,1.79,2.22c-0.13,1.09-0.88,1.99-1.52,2.88
		c-0.43,0.59-5.35,11.54-3.72,11.59c4.83,0.14,8.76-5.68,11.19-9.1c1.06-1.49,7.58-13.1,8.68-11.73c0.45,0.55,0.45,1.32,0.49,2.03
		c0.42,6.19,7.29,8.76,5,15.49c-0.25,0.75-0.61,1.51-0.48,2.29c0.58,3.42,6.89,1.12,8.98,3.07c0.84-1.15,2.54-1.02,3.96-1.13
		c11.26-0.91,13.54-11.09,14.51-20.42c0.38-3.65,1.41-7.56,4.35-9.75c-0.77,4.62-2.43,9.06-2.83,13.75
		c-0.11,1.23-0.78,5.19,0.84,5.82c0.98,0.38,7.29-5.79,7.13-6.43c1.3,5.29-7.04,7.39-6.98,12.92c0.01,0.78,0.14,1.6,0.59,2.24
		c1.3,1.85,3.15,0.48,4.58,1.31c0.16,0.09,2.9,2.55,1.96,2.62c-2.4,0.2-5.02-0.3-7.07-1.62c-0.64-0.41-4.35-3.9-4.07-4.46
		c-5.52,10.82-24.35,7.04-34.03,7.02c-1.81,0-4.29-0.73-4.03-2.51c0.42-2.86,5.16-1.17,6.98-1.79c2.73-0.93,3.58-4.29,2.66-6.82
		c-0.61-1.68-2.19-4.05-3.84-4.87c-3.06-1.52-2.37-0.35-4.13,2.44c-2.69,4.25-13.19,19.69-17.24,8.82c0.18,0.54-5.19,3.13-5.74,3.14
		c-2.86,0.07-4.35-3.49-7.39-2.51c-2.37,0.76-4.12,3.72-6.54,3.14c-1.49-0.36-2.33-2.06-2.28-3.59c0.05-1.54,0.77-2.96,1.41-4.35
		c1.58-3.46,2.75-7.09,3.5-10.82c-4.2-0.18-7.07,4.12-8.71,7.99s-3.49,8.39-7.52,9.57c-4.16,1.22-8.62-1.84-12.85-0.89
		c-1.65,0.37-3.44,1.31-4.9,0.46c-1.26-0.74-1.58-2.49-2.75-3.36c-1.43-1.06,2.15-13.39,4.02-18.98
		c1.87-5.59,4.69-11.54,10.14-13.79c0.68-0.28,1.52-0.48,2.12-0.05c0.65,0.46,0.7,1.39,0.64,2.18C25.92-77,22.31-67.42,16.27-62.92z
		"/>
	<path class="st0" d="M127.99-49.93c-0.24-0.41-0.29-0.88,0.01-1.25c0.25-0.31,0.64-0.44,1-0.61c2.59-1.16,3.81-4.08,4.95-6.68
		c1.28-2.91,2.76-5.74,4.43-8.45c0.62-1.01,1.93-2.12,2.8-1.32c0.59,0.54,0.36,1.5,0.1,2.25c-1.37,3.85-3.33,7.38-4.83,11.17
		c-0.29,0.72-0.56,1.49-0.46,2.26c0.45,3.46,5.48,0.31,6.77-0.95c3.05-2.96,5.62-10.19,7.27-14.12c0,0,7.83-6.03,9.47-1.69
		c0.32,0.21,3.36,2.37,3.25,2.64c0.37-0.86,1.39-3.02,2.68-3.33c2.08-0.5,2.26-0.87,4.15,1.45c3.32,4.07-3.08,9.01-3.69,12.64
		c-1.11,6.62,6.82-3.17,7.62-4.98c0.92-2.06,3.08-3.72,4.94-4.92c3.96-2.55,4.25-2.31,8.28-0.81c2.77,1.03,4.96,0.55,7.75,0.46
		c3.23-0.1,2.64-0.11,5.38,1.86c1.23-1.17,2.76-3.42,4.79-2.45c0.38,0.18,0.71,0.46,1.13,0.52c0.55,0.08,1.06-0.27,1.6-0.38
		c1.61-0.35,3,1.44,2.99,3.08c-0.01,1.64-0.92,3.12-1.62,4.61c-0.7,1.49-1.22,3.27-0.46,4.73c0.13,0.25,0.31,0.49,0.57,0.6
		c0.37,0.15,0.79-0.02,1.13-0.23c2.48-1.55,2.98-5.88,4.34-8.31c0.94-1.7,2.1-3.34,3.7-4.44c0.89-0.62,1.89-1.14,2.96-1.29
		c3.54-0.47,6.96,1.79,7.91,2.77c-0.95,0.8-1.66,1.39-2.51,2.11c0.45-0.38-4.33-0.24-5.08,0.08c-3.76,1.62-7.48,5.66-4.48,9.43
		c0.81,1.01,6.18,4.46,7.17,3.25c0.46-0.56,2.62-0.95,3.54-0.92c2.89,0.08,0.55,1.87,0.66,2.11c-1.34,0.71-2.77,0.96-4.3,1.02
		c-4.42,0.17-6.93-2.26-10.81-3.2c-3.38-0.82-8.07,1.73-9.14-2.95c-0.36-1.58,4.03-11.7-0.17-8.6c-2.65,1.96-3.74,4.41-5.29,7.17
		c-0.69,1.24-3.98,7.32-4.87,3.16c-0.22-1.02,0.2-2.07,0.73-2.97c0.86-1.48,2.02-2.84,2.37-4.52c0.34-1.68-0.63-3.8-2.34-3.84
		c-0.44-0.01-0.86,0.12-1.28,0.24c-2.4,0.72-3.43,1.08-5.04,2.94c0.88-0.94,0.2,4.3,0.13,4.55c-1.54,5.16-7.11,8.61-12.41,7.27
		c-2.43-0.62-4.21-2.45-6.64-2.57c-2.01-0.09-3.03,2.36-4.91,0.19c-0.68-0.79-0.84-1.91-0.86-2.95c-0.04-2.36,3.84-9.4,3.12-10.68
		c-1.15-2.04-3.06,0.61-3.85,1.53c-2.96,3.43-3.72,8.49-5.78,12.42c-0.21,0.4-2.1-1.89-2.21-2.24c-0.43-1.38,0.41-1.82,0.74-3.02
		c0.6-2.19,4.6-10.05,0.57-9.53c-1.78,0.23-4.83,4.85-5.7,6.34c-1.76,3.04-1.57,6.45-3.57,9.22c-0.17,0.24-0.29,0.5-0.48,0.82
		c-0.88-0.47-1.69-0.91-2.68-1.45c-1.55,2.78-4.26,3.07-7.14,3.42c0,0-0.83-0.74-0.83-0.75c-0.82-0.74-1.3-1.76-2.41-2.02
		c-1.38-0.32-2.3,1.3-3.82,1.02C128.77-49.09,128.26-49.47,127.99-49.93z M179.8-61.62c-0.37-0.12-0.74-0.2-1.12-0.16
		c-3.29,0.36-4.16,6.46-3.25,8.89c0.26,0.71,0.78,1.36,1.49,1.6c0.43,0.15,0.89,0.14,1.34,0.13c3.43-0.08,5.62-0.49,7.05-3.89
		c0.47-1.12,1.54-7.24-0.99-6.44c-0.52,0.17-0.94,0.55-1.47,0.69C181.81-60.51,180.82-61.26,179.8-61.62z"/>
	<path class="st0" d="M263.08-55.62c-1.72-2.93-0.63-7.58-0.23-10.66c0.64-5,2.11-10.05,5.5-13.91c1.29-1.47,5.99-4.93,8.02-2.95
		c0.26,0.25,0.38,0.62,0.47,0.97c0.64,2.38,0.71,5.16,0.31,7.6c-0.34,2.08-1.82,6.87-2.89,9.04c-0.38-0.49,5.03-4.9,5.46-5.02
		c3.11-0.83,5.26,0.18,8.25,0.72c3.03,0.54,3.2,3.19,0.85,4.11c-0.16,0.06-0.32,0.13-0.4,0.28c-0.07,0.12-0.07,0.28-0.06,0.42
		c0.15,2.46,0.07,4.96-0.6,7.35c-0.62,2.2-1.47,5.19-3.98,5.88c-4.13,1.12-6.4-2.41-9.65-3.85c-1.39-0.61-2.73,1.18-3.8,1.75
		c-1.48,0.8-3.21,1.03-4.79,0.37C264.39-53.99,263.61-54.73,263.08-55.62z M271.19-65.43c2-2.31,1.76-4.98,2.67-7
		c0.71-1.57,2.26-5.91,0.46-7.34c-1.54-1.23-3.6,1.41-4.39,2.54c-2.57,3.66-4.45,9.46-4.53,13.93c-0.04,2.32,0.93,7.05,4.09,6.69
		c2.78-0.31,4.14-5.05,4.42-7.3c0.28-2.21-7.62,5.54-7.73,4.83C266.18-59.08,271.18-65.42,271.19-65.43z M277.92-65.53
		c-1.29,1.83-2.53,4.03-1.71,6.31c0.47,1.3,1.41,2.61,2.41,3.55c1.06,1,4.02,1.75,5.21,0.58c0.2-0.19,2.27-5.86,1.93-9.14
		c-0.18-1.76-1.42-2.84-2.98-3.38"/>
	<path class="st0" d="M258.08-52.85c0.01-0.02,4.54-3.75,4.55-3.73c-0.09,0.58-2.09,5.68-5.53,6.54c-0.3,0.07-0.61,0.07-0.91,0
		c-2.32-0.52-4.66-1.02-7.04-0.99c-1.72,0.02-2.76,0.5-4.14,1.4c-1.86,1.21-2.82,1.08-3.81-0.96c0.52,1.07,4.87-2.94,5.19-3.43
		c1.44-2.18,1.21-4.85,1.19-7.36c-0.04-6.32,0.63-14.69,5.62-19.28c1.31-1.21,2.83-2.06,4.41-1.13c5.34,3.14,2.44,11.7,0.46,16
		c-0.35,0.76-0.75,1.52-1.36,2.1c-0.69,0.65-1.65,1.01-2.6,0.99c0.15-2.53,1.55-4.79,2.62-7.1c0.86-1.87,2.65-7.67-0.68-8.4
		c-0.48-0.11-0.99,0-1.42,0.24c-1.8,1.04-2.45,3.15-2.92,5.11c-1.09,4.5-1.83,9.09-2.19,13.71l4.56-3.64
		c0.36,0.55,0.64,1.19,0.59,1.84c-0.08,1.09-1.43,1.79-2.1,2.56c-0.92,1.05-1.69,2.29-1.89,3.69c-0.1,0.69,0.33,1.49,0.96,1.79
		c0.77,0.36,1.55,0.75,2.33,0.73C255.34-52.19,257.23-51.58,258.08-52.85z"/>
	<path class="st0" d="M233.85-54.57c0.74,0.89,1.65,1.63,2.8,2.21c1.86,0.92,1.85,0.05,3.63-0.18c1.21-0.15,1.22,2.58,2.17,2.34
		c-0.76,1.34-2.88,0.85-4.33,1.19c-2.61,0.61-4.22-0.85-6.66-1.24c-1.14-0.18-3.1,0.29-3.15-1.6c-0.02-0.61,0.33-1.13,0.8-1.52
		c0.87-0.71-0.37-3.68-0.41-4.85c-0.06-1.65,0.12-3.45,0.96-4.9c1.33-2.3,3.28-4.74,6.08-5.19c0.61-0.1,1.24-0.05,1.79,0.21
		c1.64,0.74,1.68,2.5,1.53,4.01c-0.19,1.96-0.57,3.91-1.12,5.8c-0.22,0.74-2.26,4.69-3.13,2.29c-0.18-0.49-0.04-1.04,0.1-1.55
		c0.39-1.4,2.81-6.48,0.4-7.06c-1.81-0.44-3.5,3.05-3.67,4.41C231.35-58.06,232.52-56.16,233.85-54.57z"/>
	<path class="st0" d="M128.07-66.5c-0.23-2.02,1-3.39,2.24-4.85c2.59-3.08,7.58-13.04,3.23-16.55c-1.23-1-9.22,7.71-10.57,7.22
		c0.26-1.07,6.63-9.01,7.5-9.7c4.62-3.67,6.72,1.69,6.77,5.5c0.08,5.77-2.2,10.79-5.22,15.57C131.12-67.89,129.58-66.46,128.07-66.5
		z"/>
	<path class="st0" d="M145.69-79.06c-0.71,0.15-1.18-1.23-1.42-2.08c-0.47-1.63,1.08-3.17,2.72-2.75c1.21,0.31,1.51,2.55,0.43,3.67
		C146.63-79.39,146.81-79.3,145.69-79.06z"/>
	<path class="st0" d="M36.5-83.11c-1.65,1.45-4.78-0.85-3.69-3.6C36.34-88.66,38.5-85.97,36.5-83.11z"/>
</g>
<path class="st1" d="M153.98-107.16l92.75-92.21c-24.23-22.97-56.6-37.41-92.37-38.58L153.98-107.16z"/>
<path class="st1" d="M159.95-101.16l130.78,0.39c-0.95-35.77-15.2-68.22-38.03-92.59L159.95-101.16z"/>
<path class="st1" d="M145.52-107.19l0.39-130.78c-35.77,0.95-68.22,15.2-92.59,38.03L145.52-107.19z"/>
<path class="st1" d="M139.51-101.22l-92.21-92.75c-22.97,24.23-37.41,56.6-38.58,92.37L139.51-101.22z"/>
</svg>
