<?xml version="1.0" encoding="utf-8"?>
<!-- Generator: Adobe Illustrator 24.3.0, SVG Export Plug-In . SVG Version: 6.00 Build 0)  -->
<svg version="1.1" id="Ebene_1" xmlns="http://www.w3.org/2000/svg" xmlns:xlink="http://www.w3.org/1999/xlink" x="0px" y="0px"
	 viewBox="0 0 962.14 273" style="enable-background:new 0 0 962.14 273;" xml:space="preserve">
<style type="text/css">
	.st0{fill:#353535;}
</style>
<g>
	<path class="st0" d="M62.58,158.75c6.95-13.69,12.87-34.76,19.82-48.45c2.77-5.47,5.22-12.96,0.61-16.99
		c-8.81,8.68-17.15,18.24-21.79,29.71S44,174.22,62.58,158.75c-5.02,4.86-11.01,6.04-12.21,12.92c-1.2,6.88,4.77,19.37,11.69,18.41
		c3.81-0.53,6.76-3.58,8.88-6.79c4.49-6.83,6.53-14.94,9.85-22.41c3.32-7.47,8.61-14.83,16.46-17.11
		c-3.21,9.09-6.42,18.18-9.63,27.28c-2.36,6.69-3.43,16.39,3.26,18.76c3.36,1.19,7.07-0.41,9.96-2.48
		c13.97-10.02,17.29-29.8,29.68-41.72c7.33-7.05,17.68-10.84,27.83-10.19c1.68,0.11,3.5,0.4,4.65,1.63c1.16,1.24,1.33,3.09,1.35,4.8
		c0.15,10.72-3,21.46-8.9,30.41c-3.06,4.64-6.98,10.38-4.16,15.16c2.31,3.93,8.2,4.32,12.14,2.04c4.53-2.62,11.23-10.63,13.87-15.27
		c0.31-0.55,1.25-0.85,1.36-1.38c2.92-14.4,13.38-26.5,21.39-38.44c4.65,1.23,6.45,7.28,5.08,11.9
		c-4.43,14.92-23.69,25.58-16.86,43.76c0.45,1.2,1.2,2.49,2.46,2.75c1.01,0.21,2.01-0.31,2.89-0.85
		c8.72-5.3,15.54-13.65,19.01-23.24c1.06-2.92,1.82-5.97,3.17-8.76c3.43-7.06,10.33-11.89,14.09-18.78
		c3.42-0.49,6.04,3.55,5.61,6.98c-0.42,3.43-2.76,6.26-4.79,9.05c-1.34,1.85-16.8,36.26-11.7,36.41
		c15.18,0.44,27.51-17.84,35.17-28.58c3.33-4.67,23.81-41.15,27.26-36.87c1.4,1.73,1.4,4.16,1.55,6.38
		c1.31,19.44,22.91,27.54,15.7,48.68c-0.8,2.34-1.93,4.75-1.51,7.19c1.84,10.73,21.66,3.51,28.22,9.66
		c2.64-3.61,7.98-3.21,12.44-3.57c35.38-2.85,42.55-34.85,45.6-64.16c1.19-11.46,4.43-23.76,13.67-30.65
		c-2.43,14.5-7.64,28.47-8.9,43.22c-0.33,3.88-2.45,16.31,2.64,18.3c3.09,1.21,22.92-18.19,22.42-20.21
		c4.09,16.62-22.12,23.22-21.95,40.6c0.02,2.47,0.44,5.03,1.86,7.04c4.09,5.8,9.89,1.5,14.4,4.12c0.49,0.29,9.11,8,6.14,8.25
		c-7.53,0.63-15.78-0.95-22.22-5.1c-2-1.29-13.68-12.25-12.78-14.02c-17.36,33.99-76.5,22.12-106.92,22.07
		c-5.68-0.01-13.47-2.28-12.66-7.89c1.31-9,16.22-3.67,21.93-5.62c8.57-2.94,11.24-13.49,8.36-21.42
		c-1.91-5.27-6.88-12.72-12.08-15.3c-9.6-4.77-7.46-1.09-12.99,7.65c-8.44,13.36-41.44,61.88-54.16,27.72
		c0.56,1.71-16.31,9.83-18.05,9.88c-8.98,0.22-13.66-10.96-23.23-7.9c-7.45,2.38-12.94,11.7-20.53,9.86
		c-4.69-1.14-7.33-6.46-7.17-11.29c0.16-4.82,2.41-9.29,4.42-13.68c4.95-10.86,8.65-22.29,11.01-33.99
		c-13.2-0.57-22.21,12.95-27.37,25.12c-5.16,12.17-10.96,26.35-23.64,30.07c-13.08,3.84-27.07-5.77-40.38-2.8
		c-5.18,1.15-10.8,4.11-15.38,1.44c-3.97-2.31-4.95-7.83-8.64-10.56c-4.48-3.33-10.91-1.26-15.61,1.74s-9.25,6.97-14.82,7.31
		c2.07-8.92,11.35-13.75,18.22-19.79c13.9-12.23,18.97-31.33,24.83-48.89S68.62,91.3,85.73,84.23c2.15-0.89,4.77-1.51,6.67-0.17
		c2.03,1.44,2.19,4.36,2.02,6.84C92.9,114.53,81.58,144.61,62.58,158.75z"/>
	<path class="st0" d="M413.64,199.57c-0.75-1.28-0.9-2.75,0.05-3.94c0.77-0.97,2.02-1.39,3.16-1.9
		c8.15-3.65,11.97-12.81,15.56-20.98c4.03-9.16,8.68-18.04,13.91-26.57c1.95-3.18,6.05-6.67,8.8-4.14c1.84,1.7,1.15,4.7,0.31,7.06
		c-4.3,12.1-10.48,23.17-15.19,35.11c-0.9,2.27-1.77,4.67-1.45,7.1c1.42,10.89,17.21,0.97,21.28-2.98
		c9.57-9.29,17.67-32.01,22.83-44.37c0,0,24.59-18.94,29.77-5.3c1.01,0.66,10.56,7.44,10.2,8.3c1.16-2.72,4.36-9.48,8.42-10.46
		c6.52-1.57,7.09-2.74,13.03,4.54c10.43,12.77-9.66,28.32-11.59,39.73c-3.5,20.79,21.42-9.97,23.96-15.65
		c2.89-6.48,9.68-11.7,15.51-15.46c12.44-8.02,13.35-7.25,26.01-2.55c8.69,3.22,15.58,1.71,24.36,1.45
		c10.15-0.31,8.29-0.33,16.91,5.86c3.85-3.68,8.69-10.73,15.05-7.7c1.18,0.56,2.24,1.46,3.54,1.64c1.72,0.24,3.32-0.84,5.02-1.2
		c5.05-1.1,9.42,4.52,9.39,9.69c-0.04,5.17-2.88,9.82-5.1,14.49c-2.21,4.67-3.82,10.28-1.44,14.87c0.41,0.78,0.96,1.54,1.78,1.87
		c1.16,0.47,2.49-0.07,3.55-0.74c7.78-4.86,9.37-18.47,13.62-26.12c2.97-5.34,6.59-10.48,11.61-13.96c2.8-1.94,5.93-3.59,9.3-4.04
		c11.13-1.47,21.88,5.62,24.86,8.71c-3,2.52-5.2,4.37-7.88,6.63c1.41-1.18-13.59-0.76-15.95,0.25
		c-11.83,5.1-23.51,17.79-14.06,29.64c2.53,3.17,19.42,14.02,22.52,10.2c1.44-1.77,8.24-2.98,11.11-2.91
		c9.09,0.24,1.72,5.88,2.07,6.62c-4.2,2.23-8.71,3.01-13.5,3.19c-13.89,0.53-21.78-7.09-33.97-10.06
		c-10.63-2.58-25.36,5.45-28.73-9.25c-1.14-4.95,12.66-36.76-0.52-27.02c-8.32,6.15-11.74,13.86-16.61,22.52
		c-2.18,3.88-12.5,23-15.32,9.94c-0.69-3.21,0.64-6.5,2.29-9.34c2.69-4.65,6.36-8.94,7.44-14.2c1.07-5.27-1.99-11.94-7.37-12.05
		c-1.37-0.03-2.71,0.37-4.02,0.77c-7.55,2.28-10.77,3.41-15.83,9.25c2.76-2.95,0.63,13.52,0.4,14.3
		c-4.85,16.21-22.34,27.07-39,22.83c-7.63-1.94-13.23-7.71-20.88-8.06c-6.31-0.29-9.53,7.43-15.42,0.61
		c-2.15-2.49-2.64-5.99-2.7-9.28c-0.14-7.41,12.06-29.54,9.8-33.55c-3.61-6.41-9.62,1.91-12.1,4.79
		c-9.3,10.79-11.7,26.67-18.16,39.04c-0.65,1.24-6.59-5.95-6.93-7.04c-1.37-4.33,1.3-5.72,2.33-9.48c1.9-6.9,14.47-31.59,1.79-29.95
		c-5.58,0.72-15.19,15.23-17.91,19.92c-5.53,9.55-4.93,20.27-11.21,28.98c-0.53,0.74-0.93,1.58-1.51,2.59
		c-2.77-1.49-5.32-2.87-8.43-4.54c-4.88,8.74-13.38,9.66-22.44,10.73c-0.01-0.01-2.6-2.33-2.61-2.34c-2.57-2.31-4.08-5.54-7.57-6.34
		c-4.35-1-7.21,4.1-12.02,3.22C416.08,202.21,414.48,201.01,413.64,199.57z M576.42,162.86c-1.15-0.39-2.32-0.63-3.51-0.5
		c-10.34,1.13-13.06,20.3-10.21,27.93c0.83,2.22,2.45,4.26,4.69,5.02c1.34,0.46,2.79,0.43,4.2,0.39
		c10.78-0.25,17.67-1.53,22.16-12.21c1.48-3.52,4.82-22.76-3.11-20.22c-1.63,0.52-2.97,1.74-4.62,2.18
		C582.76,166.33,579.65,163.96,576.42,162.86z"/>
	<path class="st0" d="M838.12,181.7c-5.42-9.21-1.96-23.82-0.72-33.51c2.02-15.7,6.62-31.58,17.28-43.69
		c4.06-4.61,18.81-15.48,25.22-9.27c0.82,0.79,1.18,1.94,1.48,3.04c2,7.49,2.23,16.23,0.99,23.89c-1.06,6.54-5.73,21.58-9.1,28.41
		c-1.21-1.53,15.8-15.41,17.17-15.77c9.77-2.62,16.53,0.57,25.93,2.25c9.51,1.7,17.24-4.5,25.48-8.18c2.19-0.98,4.63-1.4,7.35-2.18
		c1.55,8.37-3.21,11.09-8.43,13.63c-7.14,3.48-14.33,6.77-21.72,9.66c-0.49,0.19-1.01,0.41-1.27,0.86
		c-0.23,0.39-0.21,0.88-0.18,1.33c0.46,7.72,0.23,15.6-1.89,23.09c-1.96,6.92-4.61,16.32-12.52,18.47
		c-12.98,3.53-20.12-7.57-30.32-12.09c-4.36-1.93-8.57,3.69-11.93,5.51c-4.65,2.52-10.09,3.25-15.07,1.17
		C842.25,186.81,839.77,184.5,838.12,181.7z M863.59,150.87c6.28-7.26,5.52-15.65,8.39-21.99c2.24-4.94,7.1-18.57,1.44-23.07
		c-4.84-3.85-11.32,4.44-13.8,7.99c-8.07,11.51-13.98,29.71-14.25,43.77c-0.14,7.28,2.92,22.15,12.87,21.03
		c8.73-0.99,13.02-15.88,13.9-22.93c0.87-6.95-23.94,17.42-24.28,15.18C847.86,170.82,863.57,150.89,863.59,150.87z M884.74,150.56
		c-4.04,5.75-7.94,12.67-5.38,19.82c1.46,4.08,4.45,8.21,7.58,11.17c3.32,3.13,12.62,5.49,16.37,1.82c0.62-0.6,7.13-18.4,6.07-28.73
		c-0.56-5.52-4.45-8.93-9.36-10.62"/>
	<path class="st0" d="M822.4,190.39c0.04-0.06,14.25-11.78,14.31-11.74c-0.29,1.83-6.58,17.86-17.38,20.54
		c-0.94,0.23-1.92,0.22-2.86,0.01c-7.29-1.64-14.65-3.2-22.12-3.12c-5.4,0.06-8.67,1.56-13.02,4.39c-5.85,3.81-8.85,3.4-11.96-3
		c1.64,3.38,15.3-9.25,16.31-10.77c4.54-6.86,3.8-15.23,3.75-23.11c-0.13-19.87,1.99-46.17,17.67-60.58
		c4.13-3.79,8.89-6.48,13.86-3.57c16.79,9.85,7.67,36.76,1.46,50.29c-1.1,2.39-2.34,4.79-4.26,6.59c-2.18,2.04-5.18,3.19-8.16,3.11
		c0.48-7.96,4.88-15.06,8.23-22.3c2.7-5.86,8.33-24.09-2.12-26.4c-1.52-0.34-3.12-0.01-4.46,0.77c-5.64,3.27-7.69,9.89-9.18,16.06
		c-3.43,14.15-5.74,28.58-6.9,43.09l14.34-11.44c1.14,1.72,2.02,3.73,1.87,5.8c-0.25,3.43-4.5,5.63-6.61,8.03
		c-2.9,3.29-5.29,7.2-5.93,11.61c-0.31,2.17,1.02,4.69,3.01,5.63c2.42,1.14,4.88,2.35,7.32,2.3
		C813.79,192.48,819.74,194.4,822.4,190.39z"/>
	<path class="st0" d="M746.26,184.98c2.34,2.79,5.17,5.14,8.79,6.93c5.83,2.9,5.83,0.16,11.41-0.55c3.8-0.48,3.83,8.12,6.8,7.34
		c-2.39,4.2-9.06,2.66-13.62,3.73c-8.19,1.93-13.25-2.66-20.93-3.89c-3.58-0.57-9.73,0.92-9.88-5.04c-0.05-1.9,1.03-3.56,2.5-4.77
		c2.72-2.23-1.15-11.55-1.28-15.24c-0.18-5.17,0.39-10.83,3.03-15.39c4.19-7.22,10.31-14.9,19.11-16.32
		c1.9-0.31,3.88-0.14,5.64,0.65c5.14,2.33,5.27,7.85,4.8,12.6c-0.61,6.17-1.78,12.28-3.51,18.23c-0.68,2.33-7.1,14.74-9.84,7.18
		c-0.56-1.55-0.12-3.27,0.32-4.86c1.23-4.41,8.84-20.37,1.25-22.19c-5.7-1.38-10.98,9.58-11.55,13.84
		C738.41,174.02,742.09,179.99,746.26,184.98z"/>
	<path class="st0" d="M413.89,147.51c-0.72-6.36,3.16-10.64,7.03-15.25c8.13-9.68,23.81-40.97,10.16-52
		c-3.88-3.13-28.97,24.21-33.21,22.68c0.83-3.37,20.83-28.31,23.56-30.48c14.51-11.54,21.11,5.32,21.28,17.29
		c0.25,18.13-6.9,33.91-16.4,48.92C423.47,143.14,418.63,147.65,413.89,147.51z"/>
	<path class="st0" d="M469.25,108.05c-2.23,0.48-3.71-3.88-4.48-6.52c-1.48-5.12,3.4-9.97,8.56-8.65c3.8,0.97,4.76,8.02,1.36,11.54
		C472.2,107,472.77,107.28,469.25,108.05z"/>
	<path class="st0" d="M126.15,95.33c-5.19,4.55-15.03-2.67-11.59-11.33C125.65,77.86,132.43,86.32,126.15,95.33z"/>
</g>
</svg>
