<?xml version="1.0" encoding="utf-8"?>
<!-- Generator: Adobe Illustrator 24.3.0, SVG Export Plug-In . SVG Version: 6.00 Build 0)  -->
<svg version="1.1" id="Ebene_1" xmlns="http://www.w3.org/2000/svg" xmlns:xlink="http://www.w3.org/1999/xlink" x="0px" y="0px"
	 viewBox="0 0 300 300" style="enable-background:new 0 0 300 300;" xml:space="preserve">
<style type="text/css">
	.st0{fill:#FFED00;}
	.st1{fill:#FFFFFF;}
	.st2{fill:#FFFFFF;stroke:#FFFFFF;stroke-width:3;stroke-miterlimit:10;}
	.st3{fill:#FCED55;}
</style>
<rect x="128.35" y="-59.7" class="st0" width="33.5" height="33.5"/>
<polygon class="st1" points="153.33,-102.98 143.87,-86.61 162.78,-86.61 "/>
<polygon class="st1" points="154.97,-103.86 164.42,-87.48 173.88,-103.86 "/>
<polygon class="st1" points="153.36,-106.94 143.9,-123.31 162.81,-123.31 "/>
<polygon class="st1" points="154.62,-105.88 164.08,-122.26 173.53,-105.88 "/>
<polygon class="st1" points="132.84,-103.8 142.29,-87.43 151.75,-103.8 "/>
<polygon class="st1" points="132.94,-105.89 142.39,-122.27 151.85,-105.89 "/>
<circle class="st0" cx="50.38" cy="-89.5" r="50"/>
<line class="st2" x1="50.38" y1="-23.67" x2="50.38" y2="-155.33"/>
<line class="st2" x1="116.22" y1="-89.5" x2="-15.45" y2="-89.5"/>
<line class="st2" x1="96.94" y1="-42.95" x2="3.83" y2="-136.05"/>
<line class="st2" x1="96.94" y1="-136.05" x2="3.83" y2="-42.95"/>
<g>
	<path class="st3" d="M-174.81,145.8l-91.82-91.82c-22.73,24.13-36.98,56.31-38.03,91.82H-174.81z"/>
	<path class="st3" d="M-168.87,139.85V10c-35.51,1.05-67.69,15.3-91.82,38.03L-168.87,139.85z"/>
	<path class="st3" d="M-160.46,10v129.85l91.82-91.82C-92.77,25.3-124.95,11.05-160.46,10z"/>
	<path class="st3" d="M-174.81,154.2h-129.85c1.05,35.51,15.3,67.69,38.03,91.82L-174.81,154.2z"/>
	<path class="st3" d="M-154.52,154.2l91.82,91.82c22.73-24.13,36.98-56.31,38.03-91.82H-154.52z"/>
	<path class="st3" d="M-168.87,160.15l-91.82,91.82c24.13,22.73,56.31,36.98,91.82,38.03V160.15z"/>
	<path class="st3" d="M-154.52,145.8h129.85c-1.05-35.51-15.3-67.69-38.03-91.82L-154.52,145.8z"/>
	<path class="st3" d="M-160.46,160.15V290c35.51-1.05,67.69-15.3,91.82-38.03L-160.46,160.15z"/>
	<path class="st3" d="M9.3,10v129.85l91.82-91.82C77,25.3,44.82,11.05,9.3,10z"/>
	<path class="st3" d="M15.25,154.2l91.82,91.82c22.73-24.13,36.98-56.31,38.03-91.82H15.25z"/>
	<path class="st3" d="M15.25,145.8H145.1c-1.05-35.51-15.3-67.69-38.03-91.82L15.25,145.8z"/>
	<path class="st3" d="M9.3,160.15V290c35.51-1.05,67.69-15.3,91.82-38.03L9.3,160.15z"/>
</g>
</svg>
