<?xml version="1.0" encoding="utf-8"?>
<!-- Generator: Adobe Illustrator 24.3.0, SVG Export Plug-In . SVG Version: 6.00 Build 0)  -->
<svg version="1.1" id="Ebene_1" xmlns="http://www.w3.org/2000/svg" xmlns:xlink="http://www.w3.org/1999/xlink" x="0px" y="0px"
	 viewBox="0 0 600 300" style="enable-background:new 0 0 600 300;" xml:space="preserve">
<style type="text/css">
	.st0{fill:#FFED00;}
	.st1{fill:#FFFFFF;}
	.st2{fill:#FFFFFF;stroke:#FFFFFF;stroke-width:3;stroke-miterlimit:10;}
	.st3{fill:#353535;}
	.st4{fill:none;}
	.st5{fill:#333333;}
	.st6{font-family:'Lora-Bold';}
	.st7{font-size:43px;}
</style>
<rect x="278.35" y="-59.7" class="st0" width="33.5" height="33.5"/>
<polygon class="st1" points="303.33,-102.98 293.87,-86.61 312.78,-86.61 "/>
<polygon class="st1" points="304.97,-103.86 314.42,-87.48 323.88,-103.86 "/>
<polygon class="st1" points="303.36,-106.94 293.9,-123.31 312.81,-123.31 "/>
<polygon class="st1" points="304.62,-105.88 314.08,-122.26 323.53,-105.88 "/>
<polygon class="st1" points="282.84,-103.8 292.29,-87.43 301.75,-103.8 "/>
<polygon class="st1" points="282.94,-105.89 292.39,-122.27 301.85,-105.89 "/>
<circle class="st0" cx="200.38" cy="-89.5" r="50"/>
<line class="st2" x1="200.38" y1="-23.67" x2="200.38" y2="-155.33"/>
<line class="st2" x1="266.22" y1="-89.5" x2="134.55" y2="-89.5"/>
<line class="st2" x1="246.94" y1="-42.95" x2="153.83" y2="-136.05"/>
<line class="st2" x1="246.94" y1="-136.05" x2="153.83" y2="-42.95"/>
<g>
	<path class="st3" d="M145.65,145.8L53.83,53.97C31.09,78.1,16.85,110.28,15.8,145.8H145.65z"/>
	<path class="st3" d="M151.59,139.85V10c-35.51,1.05-67.69,15.3-91.82,38.03L151.59,139.85z"/>
	<path class="st3" d="M160,10v129.85l91.82-91.82C227.69,25.3,195.51,11.05,160,10z"/>
	<path class="st3" d="M145.65,154.2H15.8c1.05,35.51,15.3,67.69,38.03,91.82L145.65,154.2z"/>
	<path class="st3" d="M165.94,154.2l91.82,91.82c22.73-24.13,36.98-56.31,38.03-91.82H165.94z"/>
	<path class="st3" d="M151.59,160.15l-91.82,91.82c24.13,22.73,56.31,36.98,91.82,38.03V160.15z"/>
	<path class="st3" d="M165.94,145.8H295.8c-1.05-35.51-15.3-67.69-38.03-91.82L165.94,145.8z"/>
	<path class="st3" d="M160,160.15V290c35.51-1.05,67.69-15.3,91.82-38.03L160,160.15z"/>
</g>
<rect x="295.1" y="51.33" class="st4" width="295.9" height="238.67"/>
<text transform="matrix(1 0 0 1 295.0999 238.3496)"><tspan x="0" y="0" class="st5 st6 st7">LINUS  </tspan><tspan x="0" y="51.6" class="st5 st6 st7">LIMONCELLO</tspan></text>
</svg>
