<?xml version="1.0" encoding="utf-8"?>
<!-- Generator: Adobe Illustrator 24.3.0, SVG Export Plug-In . SVG Version: 6.00 Build 0)  -->
<svg version="1.1" id="Ebene_1" xmlns="http://www.w3.org/2000/svg" xmlns:xlink="http://www.w3.org/1999/xlink" x="0px" y="0px"
	 viewBox="0 0 423.67 300" style="enable-background:new 0 0 423.67 300;" xml:space="preserve">
<style type="text/css">
	.st0{fill:#FFED00;}
	.st1{fill:#FFFFFF;}
	.st2{fill:#FFFFFF;stroke:#FFFFFF;stroke-width:3;stroke-miterlimit:10;}
	.st3{fill:#353535;}
	.st4{fill:#333333;}
</style>
<rect x="278.35" y="-59.7" class="st0" width="33.5" height="33.5"/>
<polygon class="st1" points="303.33,-102.98 293.87,-86.61 312.78,-86.61 "/>
<polygon class="st1" points="304.97,-103.86 314.42,-87.48 323.88,-103.86 "/>
<polygon class="st1" points="303.36,-106.94 293.9,-123.31 312.81,-123.31 "/>
<polygon class="st1" points="304.62,-105.88 314.08,-122.26 323.53,-105.88 "/>
<polygon class="st1" points="282.84,-103.8 292.29,-87.43 301.75,-103.8 "/>
<polygon class="st1" points="282.94,-105.89 292.39,-122.27 301.85,-105.89 "/>
<circle class="st0" cx="200.38" cy="-89.5" r="50"/>
<line class="st2" x1="200.38" y1="-23.67" x2="200.38" y2="-155.33"/>
<line class="st2" x1="266.22" y1="-89.5" x2="134.55" y2="-89.5"/>
<line class="st2" x1="246.94" y1="-42.95" x2="153.83" y2="-136.05"/>
<line class="st2" x1="246.94" y1="-136.05" x2="153.83" y2="-42.95"/>
<g>
	<path class="st3" d="M-15.6-156.87l-91.82-91.82c-22.73,24.13-36.98,56.31-38.03,91.82H-15.6z"/>
	<path class="st3" d="M-9.65-162.81v-129.85c-35.51,1.05-67.69,15.3-91.82,38.03L-9.65-162.81z"/>
	<path class="st3" d="M-1.25-292.67v129.85l91.82-91.82C66.45-277.37,34.27-291.62-1.25-292.67z"/>
	<path class="st3" d="M-15.6-148.46h-129.85c1.05,35.51,15.3,67.69,38.03,91.82L-15.6-148.46z"/>
	<path class="st3" d="M4.7-148.46l91.82,91.82c22.73-24.13,36.98-56.31,38.03-91.82H4.7z"/>
	<path class="st3" d="M-9.65-142.52l-91.82,91.82c24.13,22.73,56.31,36.98,91.82,38.03V-142.52z"/>
	<path class="st3" d="M4.7-156.87h129.85c-1.05-35.51-15.3-67.69-38.03-91.82L4.7-156.87z"/>
	<path class="st3" d="M-1.25-142.52v129.85c35.51-1.05,67.69-15.3,91.82-38.03L-1.25-142.52z"/>
</g>
<g>
	<path class="st4" d="M162.79,90.7v-4.88c1.13-0.05,2.08-0.2,2.85-0.44c0.76-0.25,1.36-0.81,1.78-1.7c0.42-0.89,0.63-2.32,0.63-4.29
		V51.03c0-1.33,0.04-2.61,0.11-3.85c0.07-1.23,0.13-2.17,0.18-2.81c-0.79,0.05-1.78,0.09-2.96,0.11c-1.18,0.03-2.05,0.06-2.59,0.11
		v-5.7h21.24v4.88c-1.09,0.05-2.02,0.2-2.81,0.44c-0.79,0.25-1.39,0.8-1.81,1.67c-0.42,0.86-0.63,2.31-0.63,4.33v28.34
		c0,1.33-0.03,2.59-0.07,3.77c-0.05,1.18-0.12,2.1-0.22,2.74h9.92c2.91-0.05,5.19-1.07,6.85-3.07c1.65-2,2.48-5.02,2.48-9.06h4.96
		l-0.44,17.76H162.79z"/>
	<path class="st4" d="M228.72,43.78c-1.09,0.05-2.02,0.2-2.81,0.44c-0.79,0.25-1.39,0.8-1.81,1.67c-0.42,0.86-0.63,2.31-0.63,4.33
		v28.34c0,1.33-0.03,2.62-0.07,3.85c-0.05,1.23-0.12,2.17-0.22,2.81c0.79-0.1,1.79-0.16,3-0.19c1.21-0.02,2.06-0.04,2.55-0.04v5.7
		h-21.24v-4.88c1.13-0.05,2.08-0.2,2.85-0.44c0.76-0.25,1.36-0.81,1.78-1.7c0.42-0.89,0.63-2.32,0.63-4.29V51.03
		c0-1.33,0.04-2.61,0.11-3.85c0.07-1.23,0.13-2.17,0.18-2.81c-0.79,0.05-1.78,0.09-2.96,0.11c-1.18,0.03-2.05,0.06-2.59,0.11v-5.7
		h21.24V43.78z"/>
	<path class="st4" d="M275.49,91.44l-23.68-30.27c-0.64-0.84-1.31-1.73-2-2.66c-0.69-0.94-1.38-1.9-2.07-2.89h-0.07l0.15,22.94
		c0,1.33-0.03,2.62-0.07,3.85c-0.05,1.23-0.12,2.17-0.22,2.81c0.79-0.1,1.79-0.16,3-0.19c1.21-0.02,2.06-0.04,2.55-0.04v5.7H236.2
		v-4.88c1.13-0.05,2.08-0.2,2.85-0.44c0.76-0.25,1.36-0.81,1.78-1.7c0.42-0.89,0.63-2.32,0.63-4.29l-0.15-28.34
		c0-1.33,0.02-2.61,0.07-3.85c0.05-1.23,0.12-2.17,0.22-2.81c-0.79,0.05-1.79,0.09-3,0.11c-1.21,0.03-2.08,0.06-2.63,0.11v-5.7
		h11.62l22.64,28.56c1.23,1.58,2.26,2.94,3.07,4.07c0.81,1.14,1.52,2.12,2.11,2.96h0.07V51.03c0-1.33,0.02-2.61,0.07-3.85
		c0.05-1.23,0.1-2.17,0.15-2.81c-0.79,0.05-1.78,0.09-2.96,0.11c-1.18,0.03-2.05,0.06-2.59,0.11v-5.7h16.87v4.88
		c-1.09,0.05-2.02,0.2-2.81,0.44s-1.39,0.8-1.81,1.67c-0.42,0.86-0.63,2.31-0.63,4.33v41.22H275.49z"/>
	<path class="st4" d="M312.78,43.78c-1.09,0.05-2.02,0.2-2.81,0.44s-1.39,0.8-1.81,1.67c-0.42,0.86-0.63,2.31-0.63,4.33v20.35
		c0,3.11,0.33,5.66,1,7.66s1.55,3.58,2.66,4.74c1.11,1.16,2.37,1.99,3.77,2.48c1.41,0.49,2.85,0.77,4.33,0.81
		c2.71,0.1,5.03-0.42,6.96-1.55c1.92-1.13,3.4-2.89,4.44-5.25s1.55-5.38,1.55-9.03V51.03c0-1.33,0.02-2.61,0.07-3.85
		c0.05-1.23,0.12-2.17,0.22-2.81c-0.79,0.05-1.79,0.09-3,0.11c-1.21,0.03-2.08,0.06-2.63,0.11v-5.7h17.17v4.88
		c-1.09,0.05-2.02,0.2-2.81,0.44c-0.79,0.25-1.39,0.8-1.81,1.67c-0.42,0.86-0.63,2.31-0.63,4.33v18.5c0,4.24-0.52,7.84-1.55,10.8
		s-2.49,5.35-4.37,7.18c-1.88,1.83-4.07,3.15-6.59,3.96c-2.52,0.81-5.25,1.22-8.21,1.22c-4.14,0-7.6-0.59-10.36-1.78
		c-2.76-1.18-4.95-2.84-6.55-4.96c-1.6-2.12-2.74-4.56-3.4-7.33c-0.67-2.76-1-5.72-1-8.88V51.03c0-1.33,0.04-2.61,0.11-3.85
		c0.07-1.23,0.13-2.17,0.18-2.81c-0.79,0.05-1.78,0.09-2.96,0.11c-1.18,0.03-2.05,0.06-2.59,0.11v-5.7h21.24V43.78z"/>
	<path class="st4" d="M379.46,55.47c-0.44-2.76-1.23-5.07-2.37-6.92c-1.13-1.85-2.58-3.24-4.33-4.18c-1.75-0.94-3.79-1.38-6.11-1.33
		c-2.12,0-3.98,0.59-5.59,1.78c-1.6,1.18-2.41,2.71-2.41,4.59c0,1.53,0.43,2.86,1.29,4c0.86,1.14,2.18,2.2,3.96,3.18
		c1.78,0.99,4.02,2.05,6.73,3.18c1.87,0.74,3.8,1.6,5.77,2.59c1.97,0.99,3.8,2.16,5.48,3.51c1.68,1.36,3.03,2.94,4.07,4.74
		c1.04,1.8,1.55,3.91,1.55,6.33c0,2.91-0.79,5.5-2.37,7.77c-1.58,2.27-3.79,4.03-6.62,5.29c-2.84,1.26-6.15,1.89-9.95,1.89
		c-1.97,0-4.11-0.31-6.4-0.92s-4.45-1.52-6.48-2.7l0.22,3.11h-5.7V74.05h4.88c0.69,4.14,2.28,7.26,4.77,9.36
		c2.49,2.1,5.46,3.15,8.92,3.15c1.78,0,3.33-0.32,4.66-0.96c1.33-0.64,2.37-1.49,3.11-2.55c0.74-1.06,1.11-2.21,1.11-3.44
		c0-1.73-0.61-3.16-1.81-4.29c-1.21-1.13-2.71-2.1-4.51-2.89c-1.8-0.79-3.64-1.55-5.51-2.29c-2.37-0.99-4.58-2.04-6.62-3.14
		c-2.05-1.11-3.84-2.38-5.37-3.81c-1.53-1.43-2.71-3.07-3.55-4.92c-0.84-1.85-1.26-3.98-1.26-6.4c0-1.53,0.3-3.12,0.89-4.77
		c0.59-1.65,1.55-3.18,2.89-4.59s3.11-2.55,5.33-3.44c2.22-0.89,4.96-1.33,8.21-1.33c1.97,0,4.13,0.3,6.47,0.89
		c2.34,0.59,4.35,1.48,6.03,2.66l-0.3-3.03h5.77v17.24H379.46z"/>
	<path class="st4" d="M162.79,174.7v-4.88c1.13-0.05,2.08-0.2,2.85-0.44c0.76-0.25,1.36-0.81,1.78-1.7
		c0.42-0.89,0.63-2.32,0.63-4.29v-28.34c0-1.33,0.04-2.61,0.11-3.85c0.07-1.23,0.13-2.17,0.18-2.81c-0.79,0.05-1.78,0.09-2.96,0.11
		c-1.18,0.03-2.05,0.06-2.59,0.11v-5.7h21.24v4.88c-1.09,0.05-2.02,0.2-2.81,0.44c-0.79,0.25-1.39,0.8-1.81,1.67
		c-0.42,0.86-0.63,2.31-0.63,4.33v28.34c0,1.33-0.03,2.59-0.07,3.77c-0.05,1.18-0.12,2.1-0.22,2.74h9.92
		c2.91-0.05,5.19-1.07,6.85-3.07c1.65-2,2.48-5.02,2.48-9.06h4.96l-0.44,17.76H162.79z"/>
	<path class="st4" d="M228.72,127.78c-1.09,0.05-2.02,0.2-2.81,0.44c-0.79,0.25-1.39,0.8-1.81,1.67c-0.42,0.86-0.63,2.31-0.63,4.33
		v28.34c0,1.33-0.03,2.62-0.07,3.85c-0.05,1.23-0.12,2.17-0.22,2.81c0.79-0.1,1.79-0.16,3-0.19c1.21-0.02,2.06-0.04,2.55-0.04v5.7
		h-21.24v-4.88c1.13-0.05,2.08-0.2,2.85-0.44c0.76-0.25,1.36-0.81,1.78-1.7c0.42-0.89,0.63-2.32,0.63-4.29v-28.34
		c0-1.33,0.04-2.61,0.11-3.85c0.07-1.23,0.13-2.17,0.18-2.81c-0.79,0.05-1.78,0.09-2.96,0.11c-1.18,0.03-2.05,0.06-2.59,0.11v-5.7
		h21.24V127.78z"/>
	<path class="st4" d="M262.61,175.44c-1.68-4.09-3.34-8.16-5-12.21c-1.65-4.04-3.32-8.09-5-12.14c-0.4-0.94-0.9-2.26-1.52-3.96
		c-0.62-1.7-1.26-3.66-1.92-5.88c-0.67-2.22-1.27-4.51-1.81-6.88c0.1,2.76,0.17,5.37,0.22,7.81c0.05,2.44,0.05,4.77,0,6.99
		c0,1.09,0,2.2,0,3.33c0,1.14-0.01,2.26-0.04,3.37c-0.03,1.11-0.04,2.22-0.04,3.33s0,2.23,0,3.37c0,1.33-0.04,2.62-0.11,3.85
		c-0.07,1.23-0.16,2.17-0.26,2.81c0.84-0.1,1.86-0.16,3.07-0.19c1.21-0.02,2.06-0.04,2.55-0.04v5.7H235.9v-4.88
		c1.13-0.05,2.08-0.2,2.85-0.44c0.76-0.25,1.36-0.81,1.78-1.7c0.42-0.89,0.63-2.32,0.63-4.29l0.44-28.34
		c0.05-1.33,0.1-2.61,0.15-3.85c0.05-1.23,0.1-2.17,0.15-2.81c-0.79,0.05-1.78,0.09-2.96,0.11c-1.18,0.03-2.05,0.06-2.59,0.11v-5.7
		h16.35l11.17,28.64c0.44,1.14,0.94,2.46,1.48,3.96c0.54,1.51,1.06,2.96,1.55,4.37c0.49,1.41,0.86,2.53,1.11,3.37h0.07
		c0.64-1.73,1.23-3.4,1.78-5.03c0.54-1.63,1.11-3.21,1.7-4.74c1.92-5.13,3.83-10.24,5.73-15.32c1.9-5.08,3.81-10.16,5.74-15.24
		h17.09v4.88c-1.09,0.05-2.05,0.2-2.89,0.44c-0.84,0.25-1.47,0.8-1.89,1.67s-0.6,2.31-0.55,4.33l1.11,28.34
		c0.1,1.33,0.1,2.62,0,3.85c-0.1,1.23-0.2,2.17-0.3,2.81c0.84-0.1,1.86-0.16,3.07-0.19c1.21-0.02,2.06-0.04,2.55-0.04v5.7h-20.57
		v-4.88c1.13-0.05,2.11-0.2,2.92-0.44c0.81-0.25,1.43-0.81,1.85-1.7c0.42-0.89,0.58-2.32,0.48-4.29l-0.59-15.69
		c0-0.59-0.05-1.62-0.15-3.07c-0.1-1.45-0.18-3.06-0.26-4.81s-0.14-3.39-0.18-4.92c-0.15,0.35-0.3,0.68-0.44,1
		c-0.15,0.32-0.27,0.66-0.37,1l-14.43,38.55H262.61z"/>
	<path class="st4" d="M331.8,175.88c-4.69,0-8.67-0.79-11.95-2.37c-3.28-1.58-5.93-3.69-7.96-6.33c-2.02-2.64-3.5-5.56-4.44-8.77
		c-0.94-3.21-1.41-6.41-1.41-9.62c0-3.11,0.53-6.25,1.59-9.43c1.06-3.18,2.66-6.11,4.81-8.77c2.15-2.66,4.85-4.81,8.1-6.44
		s7.08-2.44,11.47-2.44c4.49,0,8.36,0.81,11.62,2.44c3.26,1.63,5.92,3.79,7.99,6.47c2.07,2.69,3.61,5.61,4.63,8.77
		c1.01,3.16,1.52,6.29,1.52,9.4c0,3.06-0.53,6.17-1.59,9.32c-1.06,3.16-2.66,6.08-4.81,8.77c-2.15,2.69-4.85,4.86-8.1,6.51
		C340.02,175.05,336.19,175.88,331.8,175.88z M332.62,170.48c2.56,0,4.71-0.63,6.44-1.89c1.73-1.26,3.11-2.9,4.14-4.92
		c1.04-2.02,1.78-4.23,2.22-6.62c0.44-2.39,0.67-4.72,0.67-6.99c0-3.4-0.3-6.51-0.89-9.32c-0.59-2.81-1.51-5.24-2.74-7.29
		c-1.23-2.05-2.8-3.63-4.7-4.74c-1.9-1.11-4.13-1.64-6.7-1.59c-2.52,0.05-4.64,0.73-6.36,2.04c-1.73,1.31-3.11,2.99-4.14,5.03
		c-1.04,2.05-1.78,4.28-2.22,6.7c-0.44,2.42-0.67,4.76-0.67,7.03c0,2.32,0.26,4.79,0.78,7.4c0.52,2.62,1.34,5.08,2.48,7.4
		c1.13,2.32,2.66,4.19,4.59,5.62C327.44,169.76,329.8,170.48,332.62,170.48z"/>
	<path class="st4" d="M402.55,175.44l-23.68-30.27c-0.64-0.84-1.31-1.73-2-2.66c-0.69-0.94-1.38-1.9-2.07-2.89h-0.07l0.15,22.94
		c0,1.33-0.03,2.62-0.07,3.85c-0.05,1.23-0.12,2.17-0.22,2.81c0.79-0.1,1.79-0.16,3-0.19c1.21-0.02,2.06-0.04,2.55-0.04v5.7h-16.87
		v-4.88c1.13-0.05,2.08-0.2,2.85-0.44c0.76-0.25,1.36-0.81,1.78-1.7c0.42-0.89,0.63-2.32,0.63-4.29l-0.15-28.34
		c0-1.33,0.02-2.61,0.07-3.85c0.05-1.23,0.12-2.17,0.22-2.81c-0.79,0.05-1.79,0.09-3,0.11c-1.21,0.03-2.08,0.06-2.63,0.11v-5.7
		h11.62l22.64,28.56c1.23,1.58,2.26,2.94,3.07,4.07c0.81,1.14,1.52,2.12,2.11,2.96h0.07v-23.46c0-1.33,0.02-2.61,0.07-3.85
		c0.05-1.23,0.1-2.17,0.15-2.81c-0.79,0.05-1.78,0.09-2.96,0.11c-1.18,0.03-2.05,0.06-2.59,0.11v-5.7h16.87v4.88
		c-1.09,0.05-2.02,0.2-2.81,0.44s-1.39,0.8-1.81,1.67c-0.42,0.86-0.63,2.31-0.63,4.33v41.22H402.55z"/>
	<path class="st4" d="M200.97,223.47c-0.64-4.09-2.01-7.18-4.11-9.25c-2.1-2.07-4.87-3.13-8.33-3.18c-2.57,0-4.81,0.59-6.73,1.78
		c-1.92,1.18-3.51,2.76-4.77,4.74c-1.26,1.97-2.2,4.22-2.81,6.73c-0.62,2.52-0.92,5.11-0.92,7.77c0,4.24,0.6,8,1.81,11.28
		c1.21,3.28,2.97,5.86,5.29,7.73c2.32,1.88,5.13,2.81,8.44,2.81c3.11,0,6.19-0.8,9.25-2.41c3.06-1.6,5.62-3.83,7.7-6.7l3.55,3.26
		c-2.42,3.31-4.96,5.81-7.62,7.51c-2.66,1.7-5.27,2.85-7.81,3.44c-2.54,0.59-4.82,0.89-6.85,0.89c-3.8,0-7.25-0.68-10.36-2.03
		c-3.11-1.36-5.79-3.23-8.03-5.62c-2.25-2.39-3.97-5.18-5.18-8.36c-1.21-3.18-1.81-6.62-1.81-10.32c0-3.35,0.54-6.68,1.63-9.99
		c1.08-3.3,2.7-6.3,4.85-8.99c2.15-2.69,4.85-4.83,8.1-6.44c3.26-1.6,7.03-2.41,11.32-2.41c1.92,0,4.03,0.31,6.33,0.93
		c2.29,0.62,4.45,1.52,6.47,2.7l-0.3-3.11h5.7v17.24H200.97z"/>
	<path class="st4" d="M238.86,240.86c0-2.07-0.32-3.56-0.96-4.48c-0.64-0.91-1.52-1.49-2.63-1.74c-1.11-0.25-2.33-0.34-3.66-0.3
		l-1.92,0.07v12.14c0,1.33-0.03,2.59-0.07,3.77c-0.05,1.18-0.12,2.1-0.22,2.74h9.92c1.48,0,2.91-0.33,4.29-1
		c1.38-0.67,2.52-1.78,3.4-3.33s1.33-3.66,1.33-6.33h4.81l-0.37,16.28H213.7v-4.88c1.13-0.05,2.08-0.2,2.85-0.44
		c0.76-0.25,1.36-0.81,1.78-1.7c0.42-0.89,0.63-2.32,0.63-4.29v-28.34c0-1.33,0.04-2.61,0.11-3.85c0.07-1.23,0.13-2.17,0.18-2.81
		c-0.79,0.05-1.78,0.09-2.96,0.11c-1.18,0.03-2.05,0.06-2.59,0.11v-5.7h37l0.44,14.36h-4.88c0-2.71-0.47-4.76-1.41-6.14
		c-0.94-1.38-2.1-2.31-3.48-2.78c-1.38-0.47-2.74-0.68-4.07-0.63l-2.66,0.07c-1.04,0-1.92,0.14-2.66,0.41
		c-0.74,0.27-1.31,0.86-1.7,1.78c-0.4,0.91-0.59,2.33-0.59,4.26v11.1h8.66l-0.3-6.44h5.7v17.98H238.86z"/>
	<path class="st4" d="M259.88,258.7v-4.88c1.13-0.05,2.08-0.2,2.85-0.44c0.76-0.25,1.36-0.81,1.78-1.7
		c0.42-0.89,0.63-2.32,0.63-4.29v-28.34c0-1.33,0.04-2.61,0.11-3.85c0.07-1.23,0.13-2.17,0.18-2.81c-0.79,0.05-1.78,0.09-2.96,0.11
		c-1.18,0.03-2.05,0.06-2.59,0.11v-5.7h21.24v4.88c-1.09,0.05-2.02,0.2-2.81,0.44c-0.79,0.25-1.39,0.8-1.81,1.67
		c-0.42,0.86-0.63,2.31-0.63,4.33v28.34c0,1.33-0.03,2.59-0.07,3.77c-0.05,1.18-0.12,2.1-0.22,2.74h9.92
		c2.91-0.05,5.19-1.07,6.85-3.07c1.65-2,2.48-5.02,2.48-9.06h4.96l-0.44,17.76H259.88z"/>
	<path class="st4" d="M304.57,258.7v-4.88c1.13-0.05,2.08-0.2,2.85-0.44c0.76-0.25,1.36-0.81,1.78-1.7
		c0.42-0.89,0.63-2.32,0.63-4.29v-28.34c0-1.33,0.04-2.61,0.11-3.85c0.07-1.23,0.13-2.17,0.18-2.81c-0.79,0.05-1.78,0.09-2.96,0.11
		c-1.18,0.03-2.05,0.06-2.59,0.11v-5.7h21.24v4.88c-1.09,0.05-2.02,0.2-2.81,0.44c-0.79,0.25-1.39,0.8-1.81,1.67
		c-0.42,0.86-0.63,2.31-0.63,4.33v28.34c0,1.33-0.03,2.59-0.07,3.77c-0.05,1.18-0.12,2.1-0.22,2.74h9.92
		c2.91-0.05,5.19-1.07,6.85-3.07c1.65-2,2.48-5.02,2.48-9.06h4.96l-0.44,17.76H304.57z"/>
	<path class="st4" d="M373.91,259.88c-4.69,0-8.67-0.79-11.95-2.37c-3.28-1.58-5.93-3.69-7.96-6.33c-2.02-2.64-3.5-5.56-4.44-8.77
		c-0.94-3.21-1.41-6.41-1.41-9.62c0-3.11,0.53-6.25,1.59-9.43c1.06-3.18,2.66-6.11,4.81-8.77c2.15-2.66,4.85-4.81,8.1-6.44
		s7.08-2.44,11.47-2.44c4.49,0,8.36,0.81,11.62,2.44c3.26,1.63,5.92,3.79,7.99,6.47c2.07,2.69,3.61,5.61,4.63,8.77
		c1.01,3.16,1.52,6.29,1.52,9.4c0,3.06-0.53,6.17-1.59,9.32c-1.06,3.16-2.66,6.08-4.81,8.77c-2.15,2.69-4.85,4.86-8.1,6.51
		C382.12,259.05,378.3,259.88,373.91,259.88z M374.72,254.48c2.56,0,4.71-0.63,6.44-1.89c1.73-1.26,3.11-2.9,4.14-4.92
		c1.04-2.02,1.78-4.23,2.22-6.62c0.44-2.39,0.67-4.72,0.67-6.99c0-3.4-0.3-6.51-0.89-9.32c-0.59-2.81-1.51-5.24-2.74-7.29
		c-1.23-2.05-2.8-3.63-4.7-4.74c-1.9-1.11-4.13-1.64-6.7-1.59c-2.52,0.05-4.64,0.73-6.36,2.04c-1.73,1.31-3.11,2.99-4.14,5.03
		c-1.04,2.05-1.78,4.28-2.22,6.7c-0.44,2.42-0.67,4.76-0.67,7.03c0,2.32,0.26,4.79,0.78,7.4c0.52,2.62,1.34,5.08,2.48,7.4
		c1.13,2.32,2.66,4.19,4.59,5.62C369.54,253.76,371.91,254.48,374.72,254.48z"/>
</g>
<rect x="1.1" y="309" style="fill:none;" width="588" height="166"/>
<text transform="matrix(1 0 0 1 1.0995 364.8695)" style="font-family:'Lora-Bold'; font-size:74px;">linus limoncello</text>
<path class="st3" d="M139.22,145.8L47.39,53.97C24.66,78.1,10.41,110.28,9.37,145.8H139.22z"/>
<path class="st3" d="M145.16,139.85V10c-35.51,1.05-67.69,15.3-91.82,38.03L145.16,139.85z"/>
<path class="st3" d="M139.22,154.2H9.37c1.05,35.51,15.3,67.69,38.03,91.82L139.22,154.2z"/>
<path class="st3" d="M145.16,160.15l-91.82,91.82c24.13,22.73,56.31,36.98,91.82,38.03V160.15z"/>
</svg>
